# AST/ASF file generated using VICON BodyLanguage
# -----------------------------------------------
:version 1.10
:name VICON
:units
  mass 1.0
  length 0.45
  angle deg
:documentation
   .ast/.asf automatically generated from VICON data using
   VICON BodyBuilder and BodyLanguage model FoxedUp or BRILLIANT.MOD
:root
   order TX TY TZ RX RY RZ
   axis XYZ
   position 0 0 0  
   orientation 0 0 0 
:bonedata
  begin
     id 1 
     name lhipjoint
     direction 0.570549 -0.739093 0.358072 
     length 2.41801 
     axis 0 0 0  XYZ
  end
  begin
     id 2 
     name lfemur
     direction 0.34202 -0.939693 0  
     length 7.44434  
     axis 0 0 20  XYZ
    dof rx ry rz
    limits (-160.0 20.0)
           (-70.0 70.0)
           (-60.0 70.0)
  end
  begin
     id 3 
     name ltibia
     direction 0.34202 -0.939693 0   
     length 7.60047   
     axis 0 0 20   XYZ
    dof rx
    limits (-10.0 170.0)
  end
  begin
     id 4 
     name lfoot
     direction 0.0909041 -0.249757 0.964032   
     length 2.03437   
     axis -90 7.62852e-016 20   XYZ
    dof rx rz
    limits (-45.0 90.0)
           (-70.0 20.0)
  end
  begin
     id 5 
     name ltoes
     direction 1.53547e-011 -4.2174e-011 1   
     length 1.02054   
     axis -90 7.62852e-016 20   XYZ
    dof rx
    limits (-90.0 20.0)
  end
  begin
     id 6 
     name rhipjoint
     direction -0.558096 -0.746754 0.361784   
     length 2.3932  
     axis 0 0 0  XYZ 
  end
  begin
     id 7 
     name rfemur
     direction -0.34202 -0.939693 0   
     length 7.3886   
     axis 0 0 -20   XYZ
    dof rx ry rz
    limits (-160.0 20.0)
           (-70.0 70.0)
           (-70.0 60.0)
  end
  begin
     id 8 
     name rtibia
     direction -0.34202 -0.939693 0   
     length 7.4839   
     axis 0 0 -20   XYZ
    dof rx
    limits (-10.0 170.0)
 end
 begin
     id 9 
     name rfoot
     direction -0.114619 -0.314914 0.942174   
     length 2.25127  
     axis -90 -7.62852e-016 -20   XYZ
    dof rx rz
    limits (-45.0 90.0)
           (-20.0 70.0)
  end
  begin
     id 10 
     name rtoes
     direction -1.53518e-011 -4.21881e-011 1   
     length 1.11821   
     axis -90 -7.62852e-016 -20   XYZ
    dof rx
    limits (-90.0 20.0)
  end
  begin
     id 11 
     name lowerback
     direction -0.00902269 0.996426 -0.0839821   
     length 2.25052   
     axis 0 0 0   XYZ
    dof rx ry rz
    limits (-20.0 45.0)
           (-30.0 30.0)
           (-30.0 30.0)
  end
  begin
     id 12 
     name upperback
     direction 0.0370973 0.999169 -0.0168941   
     length 2.24876   
     axis 0 0 0   XYZ
    dof rx ry rz
    limits (-20.0 45.0)
           (-30.0 30.0)
           (-30.0 30.0)
  end
  begin
     id 13 
     name thorax
     direction 0.0402726 0.998931 0.0227027   
     length 2.26408   
     axis 0 0 0   XYZ
    dof rx ry rz
    limits (-20.0 45.0)
           (-30.0 30.0)
           (-30.0 30.0)
  end
  begin
     id 14 
     name lowerneck
     direction -0.0733697 0.98508 0.155675   
     length 1.58204   
     axis 0 0 0   XYZ
    dof rx ry rz
    limits (-20.0 45.0)
           (-30.0 30.0)
           (-30.0 30.0)
  end
  begin
     id 15 
     name upperneck
     direction 0.0426554 0.993501 -0.105526   
     length 1.61222   
     axis 0 0 0   XYZ
    dof rx ry rz
    limits (-20.0 45.0)
           (-30.0 30.0)
           (-30.0 30.0)
  end
  begin
     id 16
     name head
     direction 0.020792 0.998384 -0.0528868  
     length 1.61527  
     axis 0 0 0   XYZ
    dof rx ry rz
    limits (-20.0 45.0)
           (-30.0 30.0)
           (-30.0 30.0)
  end
  begin
     id 17 
     name lclavicle
     direction 0.967109 0.155462 -0.201325  
     length 3.59357  
     axis 0 0 0   XYZ
    dof ry rz
    limits (-20.0 10.0)
           (0.0 20.0)
  end
  begin
     id 18 
     name lhumerus
     direction 1 -4.48968e-011 2.38195e-027   
     length 5.38154   
     axis 180 -30 -90   XYZ
    dof rx ry rz
    limits (-60.0 90.0)
           (-90.0 90.0)
           (-90.0 90.0)
  end
  begin
     id 19
     name lradius
     direction 1 -4.48961e-011 4.85371e-027   
     length 3.33312   
     axis 180 -30 -90   XYZ
    dof rx
    limits (-10.0 170.0)
  end
  begin
     id 20
     name lwrist
     direction 1 -4.48961e-011 4.76515e-027   
     length 1.66656   
     axis -3.27502e-015 90 90   XYZ
    dof ry
    limits (-180.0 0.0)
 end
  begin
     id 21 
     name lhand
     direction 1 -4.48951e-011 9.53074e-027   
     length 0.710789   
     axis -6.08098e-015 90 90   XYZ
    dof rx rz
    limits (-90.0 90.0)
           (-45.0 45.0)
  end
  begin
     id 22 
     name lfingers
     direction 1 -4.48953e-011 1.90613e-026   
     length 0.573057   
     axis -1.21619e-014 90 90   XYZ
    dof rx
    limits (0.0 90.0)
  end
  begin
     id 23
     name lthumb
     direction 0.707107 -6.34973e-011 0.707107   
     length 0.822798   
     axis -90 45 -9.86923e-015   XYZ
    dof rx rz
    limits (-45.0 45.0)
           (-45.0 45.0)
  end
  begin
     id 24 
     name rclavicle
     direction -0.9585 0.265289 -0.104398   
     length 3.42039  
     axis 0 0 0   XYZ 
    dof ry rz
    limits (-10.0 20.0)
           (-20.0 0.0)
  end
  begin
     id 25 
     name rhumerus
     direction -1 -4.48977e-011 2.21478e-027  
     length 5.16954   
     axis 180 30 90   XYZ
    dof rx ry rz
    limits (-90.0 60.0)
           (-90.0 90.0)
           (-90.0 90.0)
  end
  begin
     id 26 
     name rradius
     direction -1 -4.48967e-011 5.63677e-027   
     length 3.38287   
     axis 180 30 90   XYZ
    dof rx
    limits (-10.0 170.0)
  end
  begin
     id 27 
     name rwrist
     direction -1 -4.48967e-011 4.76501e-027   
     length 1.69144   
     axis -3.27502e-015 -90 -90   XYZ
    dof ry
    limits (-180.0 0.0)
  end
  begin
     id 28
     name rhand
     direction -1 -4.48902e-011 9.53292e-027   
     length 0.817967   
     axis -6.08098e-015 -90 -90   XYZ
    dof rx rz
    limits (-90.0 90.0)
           (-45.0 45.0)
  end
  begin
     id 29
     name rfingers
     direction -1 -4.49012e-011 1.90561e-026   
     length 0.659466   
     axis -1.21619e-014 -90 -90   XYZ
    dof rx
    limits (0.0 90.0)
  end
  begin
     id 30
     name rthumb
     direction -0.707107 -6.34944e-011 0.707107   
     length 0.946865   
     axis -90 -45 9.86923e-015   XYZ
    dof rx rz
    limits (-45.0 45.0)
           (-45.0 45.0)
  end
:hierarchy
  begin
    root lhipjoint rhipjoint lowerback
    lhipjoint lfemur
    lfemur ltibia
    ltibia lfoot
    lfoot ltoes
    rhipjoint rfemur
    rfemur rtibia
    rtibia rfoot
    rfoot rtoes
    lowerback upperback
    upperback thorax
    thorax lowerneck lclavicle rclavicle
    lowerneck upperneck
    upperneck head
    lclavicle lhumerus
    lhumerus lradius
    lradius lwrist
    lwrist lhand lthumb
    lhand lfingers
    rclavicle rhumerus
    rhumerus rradius
    rradius rwrist
    rwrist rhand rthumb
    rhand rfingers
  end

#!OML:ASF F:\twosubjects\two\wednesday\Session 1\Justin1.ASF
:FULLY-SPECIFIED
:DEGREES
214
root 3.39725 17.9467 20.828 -1.28459 2.44114 -2.43182
lowerback 1.42982 -1.63901 0.35707
upperback 0.763565 -2.17892 4.53893
thorax 0.146834 -1.10218 4.50052
lowerneck -23.5212 -2.84798 -3.41609
upperneck 23.2059 -1.52694 -4.34149
head 11.4825 -1.5868 -1.29706
rclavicle -1.73937e-015 1.74931e-014
rhumerus -46.1486 -23.7706 -66.8416
rradius 19.0588
rwrist -2.6334
rhand -13.9436 13.5267
rfingers 7.12502
rthumb 12.1835 -16.0985
lclavicle -1.73937e-015 1.74931e-014
lhumerus -3.71726 8.73079 85.5851
lradius 42.1735
lwrist 1.69544
lhand 1.10783 37.1101
lfingers 7.12502
lthumb 26.651 65.2541
rfemur -16.6497 0.784266 27.3872
rtibia 27.8485
rfoot -7.09323 -1.51037
rtoes 1.34892
lfemur -2.57612 1.67029 -15.2609
ltibia 56.9056
lfoot 4.3769 -8.19474
ltoes -8.36795
215
root 3.40773 17.9401 20.9993 -1.42511 2.68703 -2.91049
lowerback 1.38408 -1.74526 0.993915
upperback 0.858282 -2.31831 4.61555
thorax 0.25817 -1.17085 4.2181
lowerneck -22.4854 -2.69449 -4.4058
upperneck 22.7617 -1.44011 -2.8728
head 11.1387 -1.42548 -0.55368
rclavicle -6.31141e-015 -7.95139e-016
rhumerus -44.7201 -23.3957 -67.862
rradius 19.1547
rwrist -3.16135
rhand -13.8882 13.7774
rfingers 7.12502
rthumb 12.2369 -15.8446
lclavicle -6.31141e-015 -7.95139e-016
lhumerus -4.16318 9.15772 85.6395
lradius 41.9435
lwrist 1.32921
lhand 1.33859 37.0907
lfingers 7.12502
lthumb 26.8719 65.2009
rfemur -15.8278 0.0370713 27.8853
rtibia 27.8925
rfoot -7.64197 -1.05268
rtoes 4.47779
lfemur -3.67466 1.74524 -14.7181
ltibia 57.6675
lfoot -0.313806 -7.14683
ltoes -20.2941
216
root 3.39939 17.9321 21.1707 -1.5036 2.67208 -3.02142
lowerback 1.62192 -1.74909 1.00211
upperback 0.66677 -2.30534 4.6374
thorax -0.0722305 -1.16091 4.2484
lowerneck -21.063 -2.48538 -5.44696
upperneck 22.292 -1.31067 -1.3547
head 10.7132 -1.24623 0.212294
rclavicle 2.16178e-015 -1.90833e-014
rhumerus -43.9066 -23.7202 -68.0178
rradius 18.9753
rwrist -2.77186
rhand -13.922 14.2963
rfingers 7.12502
rthumb 12.2043 -15.3276
lclavicle 2.16178e-015 -1.90833e-014
lhumerus -5.25893 9.45215 85.5814
lradius 41.9226
lwrist 1.16582
lhand 1.0151 36.6267
lfingers 7.12502
lthumb 26.5623 64.7841
rfemur -15.0698 -0.201101 28.1092
rtibia 27.8706
rfoot -8.29734 -0.973627
rtoes 4.90693
lfemur -4.85787 2.09637 -14.4674
ltibia 58.2377
lfoot -0.203667 -7.76173
ltoes -10.548
217
root 3.3882 17.9297 21.3476 -1.51229 2.48192 -3.09305
lowerback 1.78647 -1.63314 0.962037
upperback 0.453326 -2.13488 4.68368
thorax -0.391927 -1.07186 4.32682
lowerneck -19.7415 -2.26226 -6.32947
upperneck 21.801 -1.13364 -0.169362
head 10.2946 -1.07942 0.822418
rclavicle 2.40529e-014 -7.95139e-015
rhumerus -43.0958 -22.6885 -69.108
rradius 19.6826
rwrist -4.4254
rhand -14.358 14.6919
rfingers 7.12502
rthumb 11.7839 -14.9566
lclavicle 2.40529e-014 -7.95139e-015
lhumerus -6.36791 9.29972 85.637
lradius 41.8341
lwrist 1.24245
lhand 0.572025 36.3406
lfingers 7.12502
lthumb 26.1382 64.5614
rfemur -14.4264 -0.387833 28.3703
rtibia 27.9587
rfoot -9.10725 -0.960529
rtoes 0.301176
lfemur -6.25122 2.46298 -14.2659
ltibia 58.7644
lfoot -1.72406 -7.79553
ltoes -8.50241
218
root 3.37976 17.9186 21.517 -1.46954 2.21662 -3.60577
lowerback 0.903402 -1.43981 1.51894
upperback 1.03843 -1.93481 4.72954
thorax 0.67414 -0.978748 4.02057
lowerneck -19.3522 -2.24334 -7.32689
upperneck 21.0823 -1.18904 1.21897
head 9.9782 -1.0034 1.47207
rclavicle 2.67117e-014 -9.54166e-015
rhumerus -41.1297 -22.4466 -70.6399
rradius 20.5339
rwrist -5.79974
rhand -14.5966 14.4266
rfingers 7.12502
rthumb 11.5538 -15.2349
lclavicle 2.67117e-014 -9.54166e-015
lhumerus -5.96459 8.99377 85.8303
lradius 41.4104
lwrist 1.29572
lhand 0.713837 36.8789
lfingers 7.12502
lthumb 26.2739 65.0797
rfemur -13.867 -0.310508 29.0748
rtibia 28.0082
rfoot -9.85889 -1.14637
rtoes 0.37752
lfemur -7.43671 3.09427 -13.568
ltibia 59.0341
lfoot -3.89214 -7.86978
ltoes -10.6971
